<?xml version="1.0" encoding="utf-8"?>
<!-- Generator: Adobe Illustrator 26.0.3, SVG Export Plug-In . SVG Version: 6.00 Build 0)  -->
<svg version="1.1" id="Capa_1" xmlns="http://www.w3.org/2000/svg" xmlns:xlink="http://www.w3.org/1999/xlink" x="0px" y="0px"
	 viewBox="0 0 118 167" style="enable-background:new 0 0 118 167;" xml:space="preserve">
<style type="text/css">
	.st0{fill:#FF6347;}
	.st1{fill:#FFFFFF;}
	.st2{fill:#2F2F2F;}
	.st3{font-family:'MontserratAlternates-Medium';}
	.st4{font-size:16.194px;}
</style>
<g>
	<g id="Capa_2_00000140000031836492047200000008740309521727389375_">
		<g id="Capa_1-2">
			<circle class="st0" cx="59" cy="94" r="59"/>
			
				<image style="overflow:visible;opacity:0.25;enable-background:new    ;" width="112" height="141" xlink:href="94C71113B382B3B6.png"  transform="matrix(1 0 0 1 5 26)">
			</image>
			<path class="st1" d="M14.7,34.8h90.6c0.5,0,1,0.4,1,1v119.6c0,0.5-0.4,1-1,1H14.7c-0.5,0-1-0.4-1-1V35.7
				C13.8,35.2,14.2,34.8,14.7,34.8z"/>
			<path class="st2" d="M105.3,35.5c0.1,0,0.2,0.1,0.2,0.2v119.6c0,0.1-0.1,0.2-0.2,0.2h0H14.7c-0.1,0-0.2-0.1-0.2-0.2l0,0V35.7
				c0-0.1,0.1-0.2,0.2-0.2H105.3 M105.3,34H14.7c-0.9,0-1.7,0.8-1.7,1.7c0,0,0,0,0,0v119.6c0,0.9,0.8,1.7,1.7,1.7c0,0,0,0,0,0h90.6
				c0.9,0,1.7-0.8,1.7-1.7c0,0,0,0,0,0V35.7C107,34.8,106.2,34,105.3,34C105.3,34,105.3,34,105.3,34z"/>
			<path class="st2" d="M99.5,43.3v104.3h-79V43.3H99.5 M99.5,41.8h-79c-0.8,0-1.5,0.7-1.5,1.5c0,0,0,0,0,0v104.3
				c0,0.8,0.7,1.5,1.5,1.5c0,0,0,0,0,0h79c0.8,0,1.5-0.7,1.5-1.5l0,0V43.3C101,42.5,100.3,41.8,99.5,41.8L99.5,41.8z"/>
			<path class="st2" d="M72.3,38H47.7c-0.7,0-1.2-0.5-1.4-1.2l-1.5-9.2c-0.1-0.8,0.4-1.5,1.1-1.6c0.1,0,0.2,0,0.2,0h27.7
				c0.8,0,1.4,0.6,1.4,1.4c0,0.1,0,0.2,0,0.2l-1.5,9.2C73.6,37.5,73,38,72.3,38z"/>
			<path class="st2" d="M60,1.5L60,1.5h0.5c1.9,0.2,3.3,2,3,3.9c-0.1,0.5-0.3,1-0.5,1.5c-0.3,0.4-0.4,0.9-0.4,1.3l-0.9,21.3h-3.1
				L57.5,8.3c0-0.5-0.2-0.9-0.4-1.3c-1.1-1.6-0.6-3.8,1-4.8C58.6,1.7,59.3,1.5,60,1.5 M60,0c-2.8,0-5,2.2-5,5c0,1,0.3,1.9,0.8,2.8
				C55.9,7.9,56,8.1,56,8.3L57,31h6l1-22.7c0-0.2,0.1-0.4,0.2-0.6c0.6-1,0.9-2.1,0.8-3.3c-0.2-2.3-2-4.2-4.4-4.5C60.4,0,60.2,0,60,0
				z"/>
			<path class="st2" d="M30.6,131.8c0-2.3,1.9-4.3,4.2-4.3c0.1,0,0.1,0,0.2,0c1.2,0,2.4,0.4,3.2,1.3l-0.8,0.8c-0.6-0.7-1.5-1-2.4-1
				c-1.8-0.1-3.3,1.3-3.4,3c-0.1,1.8,1.3,3.3,3,3.4c0.1,0,0.2,0,0.4,0c0.9,0,1.8-0.3,2.4-1l0.8,0.8c-0.8,0.9-2,1.4-3.2,1.3
				c-2.3,0.1-4.3-1.7-4.4-4.1C30.6,131.9,30.6,131.9,30.6,131.8z"/>
			<path class="st2" d="M38.9,132.8c0-1.8,1.4-3.3,3.2-3.4c1.8,0,3.3,1.4,3.4,3.2c0,1.8-1.4,3.3-3.2,3.4c0,0,0,0-0.1,0
				c-1.7,0.1-3.2-1.3-3.3-3C38.9,133,38.9,132.9,38.9,132.8z M44.4,132.8c-0.1-1.2-1.1-2.1-2.2-2c-1.2,0.1-2.1,1.1-2,2.2
				c0.1,1.1,1,2,2.1,2c1.2,0,2.1-0.9,2.1-2C44.4,133,44.4,132.9,44.4,132.8z"/>
			<path class="st2" d="M53.2,132.3v3.7H52v-3.5c0-1.2-0.6-1.9-1.7-1.9c-1-0.1-1.9,0.7-2,1.8c0,0.1,0,0.2,0,0.3v3.3h-1.2v-6.4h1.1v1
				c0.6-0.7,1.4-1.1,2.3-1c1.4-0.1,2.5,0.9,2.6,2.3C53.2,132.1,53.2,132.2,53.2,132.3z"/>
			<path class="st2" d="M54.5,135.3l0.5-0.9c0.7,0.4,1.4,0.7,2.2,0.7c1.1,0,1.5-0.3,1.5-0.9c0-1.4-4-0.2-4-2.7c0-1.1,1-1.9,2.7-1.9
				c0.8,0,1.6,0.2,2.3,0.6l-0.5,0.9c-0.6-0.3-1.2-0.5-1.8-0.5c-1,0-1.5,0.4-1.5,0.9c0,1.5,4,0.3,4,2.7c0,1.1-1,1.9-2.7,1.9
				C56.2,136.1,55.3,135.8,54.5,135.3z"/>
			<path class="st2" d="M67.2,129.6v6.4h-1.1v-1c-0.5,0.7-1.3,1-2.2,1c-1.4,0.1-2.6-0.9-2.7-2.2c0-0.2,0-0.4,0-0.5v-3.6h1.2v3.5
				c0,1.2,0.6,1.9,1.7,1.9c1,0.1,1.9-0.7,2-1.7c0-0.1,0-0.3,0-0.4v-3.3L67.2,129.6z"/>
			<path class="st2" d="M69.4,134.1v-7h1.2v6.9c0,0.7,0.3,1.1,1,1.1c0.2,0,0.4,0,0.6-0.1l0.1,0.9c-0.3,0.1-0.5,0.1-0.8,0.1
				c-1,0.1-1.8-0.6-1.9-1.6C69.4,134.4,69.4,134.2,69.4,134.1z"/>
			<path class="st2" d="M76.6,135.6c-0.4,0.3-0.9,0.5-1.4,0.4c-1,0.1-1.9-0.6-2-1.6c0-0.1,0-0.3,0-0.4v-5.8h1.2v1.4h1.8v0.9h-1.9
				v3.4c-0.1,0.5,0.3,1,0.8,1.1c0.1,0,0.1,0,0.2,0c0.3,0,0.6-0.1,0.9-0.3L76.6,135.6z"/>
			<path class="st2" d="M83.8,129.6v6.4h-1.1v-1c-0.5,0.7-1.4,1.1-2.3,1.1c-1.8,0-3.2-1.5-3.2-3.2c0-1.8,1.4-3.2,3.2-3.2
				c0.9,0,1.7,0.3,2.2,1v-1L83.8,129.6z M82.7,132.8c-0.1-1.2-1.1-2.1-2.2-2c-1.2,0.1-2.1,1.1-2,2.2c0.1,1.1,1,2,2.1,2
				c1.2,0,2.1-0.9,2.1-2C82.7,132.9,82.7,132.9,82.7,132.8z"/>
			<path class="st2" d="M89.4,129.6v1.1h-0.3c-1-0.1-1.9,0.7-2,1.8c0,0.1,0,0.2,0,0.4v3.2H86v-6.4h1.1v1.1
				C87.6,129.9,88.5,129.5,89.4,129.6z"/>
			<path class="st2" d="M29.5,58h61c0.6,0,1,0.4,1,1l0,0c0,0.6-0.4,1-1,1h-61c-0.6,0-1-0.4-1-1l0,0C28.5,58.4,28.9,58,29.5,58z"/>
			<path class="st2" d="M29.5,63h61c0.6,0,1,0.4,1,1l0,0c0,0.6-0.4,1-1,1h-61c-0.6,0-1-0.4-1-1l0,0C28.5,63.4,28.9,63,29.5,63z"/>
			<path class="st2" d="M29.5,68h61c0.6,0,1,0.4,1,1l0,0c0,0.6-0.4,1-1,1h-61c-0.6,0-1-0.4-1-1l0,0C28.5,68.4,28.9,68,29.5,68z"/>
			<path class="st2" d="M29.5,73h61c0.6,0,1,0.4,1,1l0,0c0,0.6-0.4,1-1,1h-61c-0.6,0-1-0.4-1-1l0,0C28.5,73.4,28.9,73,29.5,73z"/>
			<path class="st2" d="M29.5,78h61c0.6,0,1,0.4,1,1l0,0c0,0.6-0.4,1-1,1h-61c-0.6,0-1-0.4-1-1l0,0C28.5,78.4,28.9,78,29.5,78z"/>
			<path class="st2" d="M29.5,83h61c0.6,0,1,0.4,1,1l0,0c0,0.6-0.4,1-1,1h-61c-0.6,0-1-0.4-1-1l0,0C28.5,83.4,28.9,83,29.5,83z"/>
			<path class="st2" d="M29.5,88h61c0.6,0,1,0.4,1,1l0,0c0,0.6-0.4,1-1,1h-61c-0.6,0-1-0.4-1-1l0,0C28.5,88.4,28.9,88,29.5,88z"/>
			<path class="st2" d="M29.5,93h61c0.6,0,1,0.4,1,1l0,0c0,0.6-0.4,1-1,1h-61c-0.6,0-1-0.4-1-1l0,0C28.5,93.4,28.9,93,29.5,93z"/>
			<path class="st2" d="M29.5,98h61c0.6,0,1,0.4,1,1l0,0c0,0.6-0.4,1-1,1h-61c-0.6,0-1-0.4-1-1l0,0C28.5,98.4,28.9,98,29.5,98z"/>
			<path class="st2" d="M29.5,103h61c0.6,0,1,0.4,1,1l0,0c0,0.6-0.4,1-1,1h-61c-0.6,0-1-0.4-1-1l0,0C28.5,103.4,28.9,103,29.5,103z"
				/>
			<path class="st2" d="M29.5,108h61c0.6,0,1,0.4,1,1l0,0c0,0.6-0.4,1-1,1h-61c-0.6,0-1-0.4-1-1l0,0C28.5,108.4,28.9,108,29.5,108z"
				/>
			<path class="st2" d="M29.5,113h61c0.6,0,1,0.4,1,1l0,0c0,0.6-0.4,1-1,1h-61c-0.6,0-1-0.4-1-1l0,0C28.5,113.4,28.9,113,29.5,113z"
				/>
			<path class="st2" d="M29.5,118h61c0.6,0,1,0.4,1,1l0,0c0,0.6-0.4,1-1,1h-61c-0.6,0-1-0.4-1-1l0,0C28.5,118.4,28.9,118,29.5,118z"
				/>
		</g>
	</g>
</g>
<rect x="28.5" y="127.1" class="st1" width="63" height="12.1"/>
<text transform="matrix(1 0 0 1 35.9643 139.1814)" class="st3 st4">Carta</text>
</svg>
