<svg xmlns="http://www.w3.org/2000/svg" viewBox="0 0 36 36"><defs><style>.cls-1{fill:#fff;}</style></defs><g id="Capa_2" data-name="Capa 2"><g id="Capa_1-2" data-name="Capa 1"><path class="cls-1" d="M24.44,3A8.57,8.57,0,0,1,33,11.56V24.44A8.57,8.57,0,0,1,24.44,33H11.56A8.57,8.57,0,0,1,3,24.44V11.56A8.57,8.57,0,0,1,11.56,3H24.44m0-3H11.56A11.55,11.55,0,0,0,0,11.56V24.44A11.55,11.55,0,0,0,11.56,36H24.44A11.55,11.55,0,0,0,36,24.44V11.56A11.55,11.55,0,0,0,24.44,0Z"/><path class="cls-1" d="M18,11.5A6.5,6.5,0,1,1,11.5,18,6.51,6.51,0,0,1,18,11.5m0-3A9.5,9.5,0,1,0,27.5,18,9.5,9.5,0,0,0,18,8.5Z"/><path class="cls-1" d="M28,7a2,2,0,1,0,2,2,2,2,0,0,0-2-2Z"/></g></g></svg>