<svg xmlns="http://www.w3.org/2000/svg" viewBox="0 0 35 35"><defs><style>.cls-1{fill:none;stroke:#fff;stroke-miterlimit:10;stroke-width:3px;}.cls-2{fill:#fff;}</style></defs><g id="Capa_2" data-name="Capa 2"><g id="Capa_1-2" data-name="Capa 1"><path class="cls-1" d="M23.6,13.69c0,3.37-6.1,13.72-6.1,13.72s-6.1-10.35-6.1-13.72a6.1,6.1,0,0,1,12.2,0Z"/><circle class="cls-2" cx="17.5" cy="13.52" r="3.36"/><path class="cls-2" d="M29.83,3A2.17,2.17,0,0,1,32,5.17V29.83A2.17,2.17,0,0,1,29.83,32H5.17A2.17,2.17,0,0,1,3,29.83V5.17A2.17,2.17,0,0,1,5.17,3H29.83m0-3H5.17A5.16,5.16,0,0,0,0,5.17V29.83A5.16,5.16,0,0,0,5.17,35H29.83A5.16,5.16,0,0,0,35,29.83V5.17A5.16,5.16,0,0,0,29.83,0Z"/></g></g></svg>