<svg xmlns="http://www.w3.org/2000/svg" viewBox="0 0 33 36"><defs><style>.cls-1{fill:#fff;}</style></defs><g id="Capa_2" data-name="Capa 2"><g id="Capa_1-2" data-name="Capa 1"><rect class="cls-1" x="7.5" y="7" width="18" height="2.5" rx="1.25"/><rect class="cls-1" x="7.5" y="10.75" width="18" height="2.5" rx="1.25"/><rect class="cls-1" x="7.5" y="14.5" width="18" height="2.5" rx="1.25"/><rect class="cls-1" x="7.5" y="18.5" width="18" height="2.5" rx="1.25"/><path class="cls-1" d="M28.83,3A1.17,1.17,0,0,1,30,4.17V31.83A1.17,1.17,0,0,1,28.83,33H4.17A1.17,1.17,0,0,1,3,31.83V4.17A1.17,1.17,0,0,1,4.17,3H28.83m0-3H4.17A4.17,4.17,0,0,0,0,4.17V31.83A4.17,4.17,0,0,0,4.17,36H28.83A4.17,4.17,0,0,0,33,31.83V4.17A4.17,4.17,0,0,0,28.83,0Z"/></g></g></svg>